<?xml version="1.0" encoding="UTF-8"?>
<svg version="1.1" xmlns="http://www.w3.org/2000/svg" width="225" height="225">
<path d="M0 0 C3.15182886 2.38516779 4.2894121 4.18742263 5 8 C5.48083463 14.82114242 4.86610615 21.4882017 4 28.25 C3.09418293 35.66532231 2.71718457 43.03074495 2.625 50.5 C2.58632812 51.9854834 2.58632812 51.9854834 2.546875 53.50097656 C2.5258857 61.30637233 3.84501677 68.67896502 9.375 74.5 C16.35820798 78.49040456 22.50305407 78.49660525 30.19067383 76.40356445 C32.34019869 75.65755139 34.45016317 74.84549808 36.5625 74 C38.20798086 73.37147228 39.85383517 72.74392166 41.5 72.1171875 C42.3765625 71.77913086 43.253125 71.44107422 44.15625 71.09277344 C49.44292548 69.06125219 54.74862215 67.08409137 60.0625 65.125 C61.09640869 64.73183594 62.13031738 64.33867188 63.19555664 63.93359375 C71.72700841 60.79596813 80.26405507 58.2560236 89 62 C91 63.75 91 63.75 92 66 C92 70.43137806 90.60462528 73.0233637 87.74365234 76.34082031 C84.06907485 79.83737991 79.62627223 82.31109749 75.3125 84.9375 C60.86698177 92.95026294 60.86698177 92.95026294 49 104 C48.55394782 109.7986783 51.15548946 112.92155476 54.57910156 117.21728516 C59.88394829 123.31497001 65.73941773 128.89990628 71.5 134.5625 C104.2898738 166.88417967 104.2898738 166.88417967 106.5 181.25 C105.83370292 184.91463396 104.70083465 186.43766969 102 189 C95.89260493 192.47283249 90.36651731 193.07726578 83.625 191.4140625 C76.08838016 188.78107672 70.14659065 183.97416943 64 179 C63.23558594 178.39027344 62.47117187 177.78054687 61.68359375 177.15234375 C60.07199649 175.82725267 58.52643512 174.42235999 57 173 C57 172.34 57 171.68 57 171 C56.34 171 55.68 171 55 171 C55 170.34 55 169.68 55 169 C54.34 169 53.68 169 53 169 C51.58984375 167.6015625 51.58984375 167.6015625 49.9375 165.625 C47.17182591 162.37058933 44.36691808 159.16586167 41.5 156 C31.43353474 144.83786506 31.43353474 144.83786506 27.5625 139.875 C23.89913055 135.76487818 19.98508712 131.81324489 14.5625 130.3359375 C11.6483565 130.81649098 11.6483565 130.81649098 9.58984375 134.0390625 C5.58911226 141.14071238 2.7673245 148.89049095 -0.26782227 156.44042969 C-9.69787875 179.81117422 -9.69787875 179.81117422 -18 185 C-21.125 185.5625 -21.125 185.5625 -24 185 C-31.20180526 179.24130457 -31.93594875 167.756465 -32.98901367 159.06933594 C-37.55260629 114.14206868 -39.64943274 43.05608896 -12.46875 4.78125 C-8.94479846 0.50752153 -5.47174208 -0.81494031 0 0 Z " fill="#FA8C05" transform="translate(88,15)"/>
<path d="M0 0 C4.16914891 3.60062861 7.54893624 7.2748231 8.46875 12.83203125 C8.54225351 19.84242825 7.93093251 24.7924542 3 30 C-1.10707136 33.80043481 -4.90892266 35.33073277 -10.5 35.625 C-17.41825522 35.28916237 -21.64834851 32.41353706 -26.375 27.5625 C-29.6175711 22.4492148 -30.46139589 18.23744492 -29.6015625 12.30859375 C-28.17388645 6.82965515 -25.32113967 3.05151933 -20.9375 -0.4375 C-13.77317062 -4.2483135 -7.18707793 -3.85972704 0 0 Z " fill="#F89213" transform="translate(124,53)"/>
<path d="M0 0 C-0.474375 0.391875 -0.94875 0.78375 -1.4375 1.1875 C-3.35179633 3.40808374 -3.61266988 5.13375709 -4 8 C-3.01 8.33 -2.02 8.66 -1 9 C-3.10918168 17.98545691 -3.10918168 17.98545691 -6.25 21.5625 C-9.78329316 23.4094487 -11.97954583 24 -16 24 C-19.45553471 22.91383047 -22.7224147 21.53657419 -26 20 C-26 20.99 -26 21.98 -26 23 C-24.35 23.33 -22.7 23.66 -21 24 C-21.66 24.33 -22.32 24.66 -23 25 C-22.67 26.98 -22.34 28.96 -22 31 C-25.82465205 27.5779429 -28.02115839 25.08997639 -29 20 C-29.21238952 13.27849652 -27.34145056 8.1308052 -23 3 C-15.72283948 -2.79202572 -8.70868806 -3.39851241 0 0 Z " fill="#F8AC43" transform="translate(123,52)"/>
<path d="M0 0 C3.96 0 7.92 0 12 0 C11.01 0.99 10.02 1.98 9 3 C8.27802838 5.60611077 8.27802838 5.60611077 8 8 C8.99 8.33 9.98 8.66 11 9 C8.89081832 17.98545691 8.89081832 17.98545691 5.75 21.5625 C2.21670684 23.4094487 0.02045417 24 -4 24 C-7.45553471 22.91383047 -10.7224147 21.53657419 -14 20 C-14 20.99 -14 21.98 -14 23 C-12.35 23.33 -10.7 23.66 -9 24 C-9.66 24.33 -10.32 24.66 -11 25 C-10.67 26.98 -10.34 28.96 -10 31 C-13.82465205 27.5779429 -16.02115839 25.08997639 -17 20 C-16.86060412 16.96316116 -16.49307286 13.99841601 -16 11 C-14.35 10.67 -12.7 10.34 -11 10 C-10.81566406 10.56589844 -10.63132812 11.13179687 -10.44140625 11.71484375 C-9.49569394 14.10644511 -8.60103778 15.9796428 -7 18 C-3.93054614 19.26878147 -1.27777088 19.45938455 2 19 C4.31008845 17.75637346 4.31008845 17.75637346 5 15 C5.21784866 11.98123999 5.17422553 9.01990917 5 6 C3.02 5.01 1.04 4.02 -1 3 C-0.67 2.01 -0.34 1.02 0 0 Z " fill="#F9A330" transform="translate(111,52)"/>
<path d="M0 0 C0.33 0 0.66 0 1 0 C0.99555878 1.15987427 0.99111755 2.31974854 0.98654175 3.51477051 C0.94594696 14.46107832 0.91599219 25.40737079 0.89637566 36.35373688 C0.88595149 41.98097376 0.8718172 47.60814973 0.84912109 53.23535156 C0.82734406 58.66886491 0.81542109 64.10231978 0.81024551 69.53587341 C0.80655849 71.60583924 0.79935869 73.67580196 0.78853989 75.7457428 C0.77396046 78.65152838 0.77202476 81.55707418 0.77294922 84.46289062 C0.76575867 85.31309784 0.75856812 86.16330505 0.75115967 87.03927612 C0.61160776 95.60340632 0.61160776 95.60340632 4 103 C4.23287008 104.68183948 4.41264166 106.3712416 4.5625 108.0625 C4.64628906 108.98160156 4.73007812 109.90070313 4.81640625 110.84765625 C4.87699219 111.55792969 4.93757813 112.26820313 5 113 C3 112 3 112 2 109.39453125 C-7.71292392 74.60253424 -3.6368564 35.46902242 0 0 Z " fill="#EEA851" transform="translate(57,84)"/>
<path d="M0 0 C3.74602414 0.53514631 4.81717324 1.44373098 7.0625 4.4375 C9.57053631 12.12661133 8.06755648 20.84771051 7.0625 28.6875 C6.14897343 36.10668676 5.80995817 43.46348376 5.75 50.9375 C5.73259766 51.92782227 5.71519531 52.91814453 5.69726562 53.93847656 C5.70172691 60.574637 6.80547681 66.20015707 9.0625 72.4375 C7.7425 73.4275 6.4225 74.4175 5.0625 75.4375 C4.7325 70.8175 4.4025 66.1975 4.0625 61.4375 C3.4025 61.4375 2.7425 61.4375 2.0625 61.4375 C2.03354024 58.31251937 2.01571517 55.1875731 2 52.0625 C1.99162109 51.17304687 1.98324219 50.28359375 1.97460938 49.3671875 C1.97138672 48.51640625 1.96816406 47.665625 1.96484375 46.7890625 C1.95960693 46.00354004 1.95437012 45.21801758 1.94897461 44.40869141 C2.0625 42.4375 2.0625 42.4375 3.0625 40.4375 C3.26472356 38.77477297 3.42661387 37.10695815 3.5625 35.4375 C3.95138889 30.65972222 3.95138889 30.65972222 5.0625 28.4375 C5.15822625 26.89034711 5.19324056 25.33917259 5.1953125 23.7890625 C5.19660156 22.86609375 5.19789062 21.943125 5.19921875 20.9921875 C5.19535156 20.02539062 5.19148438 19.05859375 5.1875 18.0625 C5.19136719 17.1034375 5.19523437 16.144375 5.19921875 15.15625 C5.19792969 14.23070312 5.19664063 13.30515625 5.1953125 12.3515625 C5.19418457 11.5054541 5.19305664 10.6593457 5.19189453 9.78759766 C5.11986234 7.13191878 5.11986234 7.13191878 4.0625 3.4375 C0.7625 3.4375 -2.5375 3.4375 -5.9375 3.4375 C-2.9375 0.4375 -2.9375 0.4375 0 0 Z " fill="#EFA952" transform="translate(84.9375,14.5625)"/>
<path d="M0 0 C3.01878821 1.66033352 3.97947256 3.33394512 5.5 6.375 C3.025 5.88 3.025 5.88 0.5 5.375 C0.83 5.705 1.16 6.035 1.5 6.375 C0.70447163 12.85287388 -1.50423238 16.30203024 -6.2578125 20.7421875 C-9.60459915 23.17939451 -12.42902232 23.79343176 -16.5 24.375 C-15.875 22.4375 -15.875 22.4375 -14.5 20.375 C-12.50116131 20.03477214 -10.50109278 19.70170903 -8.5 19.375 C-4.96051572 16.21474618 -4.46781116 11.84182073 -3.5 7.375 C-4.16 7.045 -4.82 6.715 -5.5 6.375 C-5.5 4.395 -5.5 2.415 -5.5 0.375 C-2.5 -0.625 -2.5 -0.625 0 0 Z " fill="#FA991D" transform="translate(124.5,53.625)"/>
<path d="M0 0 C2.05257931 3.44833324 3.0632763 5.31661591 2.6875 9.375 C2.460625 10.24125 2.23375 11.1075 2 12 C-0.475 11.01 -0.475 11.01 -3 10 C-3 10.99 -3 11.98 -3 13 C-1.35 13.33 0.3 13.66 2 14 C1.01 14.495 1.01 14.495 0 15 C0.33 16.98 0.66 18.96 1 21 C-2.82465205 17.5779429 -5.02115839 15.08997639 -6 10 C-5.9491647 6.9447987 -5.77349004 3.96296588 -5 1 C-3 0 -3 0 0 0 Z " fill="#F6A535" transform="translate(100,62)"/>
<path d="M0 0 C1.98567708 0.5859375 3.97135417 1.171875 5.95703125 1.7578125 C6.70703125 4.0078125 6.70703125 4.0078125 6.95703125 6.7578125 C5.39453125 9.0703125 5.39453125 9.0703125 2.95703125 10.7578125 C-0.29296875 11.0078125 -0.29296875 11.0078125 -3.04296875 10.7578125 C-4.88129539 7.65563629 -5.51743101 5.36372571 -5.04296875 1.7578125 C-2.04296875 -0.2421875 -2.04296875 -0.2421875 0 0 Z " fill="#F8B24F" transform="translate(110.04296875,60.2421875)"/>
<path d="M0 0 C0.66 0 1.32 0 2 0 C0.25 4.875 0.25 4.875 -2 6 C-2.47009792 7.6453427 -2.93455348 9.29261464 -3.36328125 10.94921875 C-4.51327313 14.65318034 -6.21697836 19.21697836 -9 22 C-9.23075082 23.34747084 -9.41153063 24.70377565 -9.5625 26.0625 C-9.706875 27.361875 -9.85125 28.66125 -10 30 C-10.66 30 -11.32 30 -12 30 C-12.495 32.475 -12.495 32.475 -13 35 C-13.98704681 31.92409665 -14.00350069 30.11723134 -12.99609375 27.05859375 C-12.7527832 26.31480469 -12.50947266 25.57101563 -12.25878906 24.8046875 C-11.98776367 24.02351563 -11.71673828 23.24234375 -11.4375 22.4375 C-11.16518555 21.63699219 -10.89287109 20.83648437 -10.61230469 20.01171875 C-8.13253506 12.95106585 -5.37428593 5.37428593 0 0 Z " fill="#F09A33" transform="translate(77,18)"/>
<path d="M0 0 C2.86724686 0.57344937 3.8614515 0.8614515 6 3 C6 2.34 6 1.68 6 1 C6.66 1 7.32 1 8 1 C8 1.66 8 2.32 8 3 C9.32 3.33 10.64 3.66 12 4 C12 4.66 12 5.32 12 6 C11.01 6 10.02 6 9 6 C9 6.66 9 7.32 9 8 C9.66 8 10.32 8 11 8 C11 8.66 11 9.32 11 10 C12.97536745 9.65213292 12.97536745 9.65213292 15 9 C15.33 8.34 15.66 7.68 16 7 C16.66 7 17.32 7 18 7 C17.67 7.78375 17.34 8.5675 17 9.375 C15.88133489 11.84332497 15.88133489 11.84332497 16 14 C16.66 14 17.32 14 18 14 C17.67 14.99 17.34 15.98 17 17 C14.99394062 15.38201759 12.99523205 13.75623702 11 12.125 C10.42765625 11.66480469 9.8553125 11.20460937 9.265625 10.73046875 C7.80601181 9.53150078 6.3986243 8.26958455 5 7 C5 6.34 5 5.68 5 5 C4.34 5 3.68 5 3 5 C3 4.34 3 3.68 3 3 C2.34 3 1.68 3 1 3 C0.67 2.01 0.34 1.02 0 0 Z " fill="#F39F3C" transform="translate(140,181)"/>
<path d="M0 0 C4.43366606 4.00173298 6.60260535 9.41693479 7.5 15.25 C6.85057015 18.82186417 5.58765863 20.48422078 3 23 C0.75 23.8125 0.75 23.8125 -1 24 C-1 23.34 -1 22.68 -1 22 C-0.34 22 0.32 22 1 22 C1 21.01 1 20.02 1 19 C1.99 19 2.98 19 4 19 C4 15.7 4 12.4 4 9 C3.34 9 2.68 9 2 9 C2 8.34 2 7.68 2 7 C1.34 7 0.68 7 0 7 C0 4.69 0 2.38 0 0 Z " fill="#EDA64F" transform="translate(187,181)"/>
<path d="M0 0 C1.32 0.66 2.64 1.32 4 2 C3.29875 3.03125 2.5975 4.0625 1.875 5.125 C-1.85679238 11.04881942 -4.35949325 17.53937869 -7 24 C-7.87840996 20.90279155 -7.99435406 19.09354597 -7 16 C-6.34 16 -5.68 16 -5 16 C-5.05220703 14.84371094 -5.05220703 14.84371094 -5.10546875 13.6640625 C-5.13253906 12.66117188 -5.15960938 11.65828125 -5.1875 10.625 C-5.23970703 9.12839844 -5.23970703 9.12839844 -5.29296875 7.6015625 C-5.14794922 6.31378906 -5.14794922 6.31378906 -5 5 C-4.01 4.34 -3.02 3.68 -2 3 C-1.34 3.33 -0.68 3.66 0 4 C0 2.68 0 1.36 0 0 Z " fill="#F0A443" transform="translate(96,144)"/>
<path d="M0 0 C0.66 0.66 1.32 1.32 2 2 C1.87666258 7.42684653 -0.231349 10.231349 -4 14 C-7.3125 15.875 -7.3125 15.875 -10 17 C-9.625 14.5625 -9.625 14.5625 -9 12 C-8.34 11.67 -7.68 11.34 -7 11 C-6.34 11.33 -5.68 11.66 -5 12 C-5 11.34 -5 10.68 -5 10 C-4.34 10 -3.68 10 -3 10 C-3.33 8.35 -3.66 6.7 -4 5 C-3.01 4.67 -2.02 4.34 -1 4 C-0.26676204 1.98491642 -0.26676204 1.98491642 0 0 Z " fill="#EDA74E" transform="translate(178,79)"/>
<path d="M0 0 C0 0.99 0 1.98 0 3 C-0.33 2.34 -0.66 1.68 -1 1 C-3.39652528 0.91860858 -5.79025436 0.85932991 -8.1875 0.8125 C-9.19780273 0.77479492 -9.19780273 0.77479492 -10.22851562 0.73632812 C-14.82833483 0.6690137 -17.20023952 1.55015442 -21 4 C-23.89453125 4.51171875 -23.89453125 4.51171875 -26.8125 4.6875 C-28.27623047 4.78611328 -28.27623047 4.78611328 -29.76953125 4.88671875 C-30.87361328 4.94279297 -30.87361328 4.94279297 -32 5 C-22.30602638 -1.46264908 -11.04247421 -3.09291523 0 0 Z " fill="#ECAD5A" transform="translate(177,77)"/>
<path d="M0 0 C0.33 0.66 0.66 1.32 1 2 C1.66 2 2.32 2 3 2 C2.09302326 9.86046512 2.09302326 9.86046512 0 13 C-2.1640625 14.046875 -2.1640625 14.046875 -4.625 14.75 C-5.85089844 15.11351563 -5.85089844 15.11351563 -7.1015625 15.484375 C-7.72804688 15.65453125 -8.35453125 15.8246875 -9 16 C-9.99 14.68 -10.98 13.36 -12 12 C-10.741875 12.0825 -9.48375 12.165 -8.1875 12.25 C-4.84873364 12.25652675 -4.84873364 12.25652675 -2.0625 10.5 C-0.57228491 6.99361154 -0.31636338 3.79636056 0 0 Z " fill="#F8A83C" transform="translate(117,59)"/>
<path d="M0 0 C0.33 0 0.66 0 1 0 C1.33 3.96 1.66 7.92 2 12 C3.65 12.33 5.3 12.66 7 13 C6.01 13.495 6.01 13.495 5 14 C5.33 15.98 5.66 17.96 6 20 C2.17534795 16.5779429 -0.02115839 14.08997639 -1 9 C-0.86060412 5.96316116 -0.49307286 2.99841601 0 0 Z " fill="#EDAF59" transform="translate(95,63)"/>
<path d="M0 0 C0.33 0 0.66 0 1 0 C0.67 7.26 0.34 14.52 0 22 C-0.66 22 -1.32 22 -2 22 C-2.33 23.32 -2.66 24.64 -3 26 C-3.16589226 19.97258105 -2.57114133 14.42505207 -1.5 8.5 C-1.35691406 7.67757812 -1.21382812 6.85515625 -1.06640625 6.0078125 C-0.71693088 4.00415373 -0.35931844 2.00191702 0 0 Z " fill="#EFAD58" transform="translate(61,58)"/>
<path d="M0 0 C0.598125 0.20625 1.19625 0.4125 1.8125 0.625 C1.8125 2.275 1.8125 3.925 1.8125 5.625 C-0.1675 6.285 -2.1475 6.945 -4.1875 7.625 C-5.1875 6.625 -5.1875 6.625 -5.4375 4.1875 C-5.355 3.341875 -5.2725 2.49625 -5.1875 1.625 C-2.1875 -0.375 -2.1875 -0.375 0 0 Z " fill="#F6BC61" transform="translate(110.1875,60.375)"/>
<path d="M0 0 C0.66 0.33 1.32 0.66 2 1 C2 1.99 2 2.98 2 4 C1.01 4.33 0.02 4.66 -1 5 C-1.33 5.66 -1.66 6.32 -2 7 C-4 10 -4 10 -6.125 10.6875 C-6.74375 10.790625 -7.3625 10.89375 -8 11 C-6.68206814 5.33289301 -4.51290803 3.33562767 0 0 Z " fill="#F5B356" transform="translate(104,52)"/>
<path d="M0 0 C1.54870938 2.65493037 2.35419927 5.22115785 3.0625 8.1875 C3.59359056 11.76619145 3.59359056 11.76619145 5 13 C5.23287008 14.68183948 5.41264166 16.3712416 5.5625 18.0625 C5.64628906 18.98160156 5.73007812 19.90070313 5.81640625 20.84765625 C5.87699219 21.55792969 5.93757813 22.26820313 6 23 C4 22 4 22 2.9296875 18.8671875 C2.56956845 17.53874835 2.21838988 16.20786147 1.875 14.875 C1.69324219 14.22273437 1.51148438 13.57046875 1.32421875 12.8984375 C0.16774944 8.51602747 -0.17788946 4.56582955 0 0 Z " fill="#EFAD5B" transform="translate(56,174)"/>
<path d="M0 0 C3.80635497 3.20760251 7.54563567 6.40746109 11 10 C10.67 10.66 10.34 11.32 10 12 C9.34 12 8.68 12 8 12 C8 11.34 8 10.68 8 10 C6.68 10 5.36 10 4 10 C3.33333333 8.66666667 2.66666667 7.33333333 2 6 C1.62875 5.29875 1.2575 4.5975 0.875 3.875 C0 2 0 2 0 0 Z " fill="#EFB15A" transform="translate(163,154)"/>
<path d="M0 0 C2.6618004 2.6618004 2.29866602 4.04249263 2.3125 7.75 C2.24679051 12.72002661 1.74674319 15.87988521 -1 20 C-2.125 16.25 -2.125 16.25 -1 14 C-0.95455719 12.00051633 -0.96154557 9.99963028 -1 8 C-1.11111111 2.22222222 -1.11111111 2.22222222 0 0 Z " fill="#EDA24A" transform="translate(130,61)"/>
<path d="M0 0 C0 0.33 0 0.66 0 1 C-6.625 1.125 -6.625 1.125 -10 0 C-10.33 0.99 -10.66 1.98 -11 3 C-11.33 2.01 -11.66 1.02 -12 0 C-12.99 -0.33 -13.98 -0.66 -15 -1 C-9.90848331 -2.62928534 -4.61112076 -2.95111729 0 0 Z " fill="#EEB45D" transform="translate(121,52)"/>
<path d="M0 0 C4.52048157 3.13922331 6.51545911 6.21495828 9 11 C8.01 11.495 8.01 11.495 7 12 C7 11.34 7 10.68 7 10 C6.01 10 5.02 10 4 10 C4 8.68 4 7.36 4 6 C3.01 6 2.02 6 1 6 C0.67 4.02 0.34 2.04 0 0 Z " fill="#F0A34A" transform="translate(178,170)"/>
<path d="M0 0 C1.9375 0.375 1.9375 0.375 4 1 C4.33 1.66 4.66 2.32 5 3 C5.99 3.33 6.98 3.66 8 4 C8.6875 6.0625 8.6875 6.0625 9 8 C6 8 6 8 4.39453125 6.50390625 C3.61142578 5.54291016 3.61142578 5.54291016 2.8125 4.5625 C2.28269531 3.92441406 1.75289063 3.28632813 1.20703125 2.62890625 C0 1 0 1 0 0 Z " fill="#F1A953" transform="translate(115,153)"/>
<path d="M0 0 C1.30660357 4.29727397 0.6596762 7.60215865 0 12 C-0.66 12 -1.32 12 -2 12 C-2.33 13.65 -2.66 15.3 -3 17 C-4.56393356 13.02623171 -3.36145292 10.18622097 -2.0625 6.25 C-1.68222656 5.07953125 -1.30195312 3.9090625 -0.91015625 2.703125 C-0.60980469 1.81109375 -0.30945313 0.9190625 0 0 Z " fill="#EFB061" transform="translate(67,36)"/>
<path d="M0 0 C0.99 0 1.98 0 3 0 C2.54738642 1.43931117 2.08767021 2.87638999 1.625 4.3125 C1.36976562 5.11300781 1.11453125 5.91351563 0.8515625 6.73828125 C0 9 0 9 -2 12 C-2 9.36 -2 6.72 -2 4 C-1.34 4 -0.68 4 0 4 C0 2.68 0 1.36 0 0 Z " fill="#EEA64A" transform="translate(85,169)"/>
<path d="M0 0 C1.65 0 3.3 0 5 0 C1.53258866 2.95749791 -1.86873527 5.07848152 -6 7 C-6.33 5.68 -6.66 4.36 -7 3 C-5.02 3 -3.04 3 -1 3 C-0.67 2.01 -0.34 1.02 0 0 Z " fill="#EFA750" transform="translate(157,100)"/>
<path d="M0 0 C-0.33 0.78375 -0.66 1.5675 -1 2.375 C-2.11866511 4.84332497 -2.11866511 4.84332497 -2 7 C-1.34 7 -0.68 7 0 7 C-0.33 7.99 -0.66 8.98 -1 10 C-2.7074998 8.71937515 -4.37373596 7.38232443 -6 6 C-6 4 -6 4 -4.125 1.875 C-2 0 -2 0 0 0 Z " fill="#F09930" transform="translate(158,188)"/>
<path d="M0 0 C3.0916909 2.52956528 3.90931332 5.22454612 5 9 C4.01 9 3.02 9 2 9 C2 8.34 2 7.68 2 7 C1.34 7 0.68 7 0 7 C0 4.69 0 2.38 0 0 Z " fill="#EF9E39" transform="translate(187,181)"/>
<path d="M0 0 C0.53109375 0.33773437 1.0621875 0.67546875 1.609375 1.0234375 C2.31578125 1.46945313 3.0221875 1.91546875 3.75 2.375 C4.79414062 3.03628906 4.79414062 3.03628906 5.859375 3.7109375 C7.86517383 4.91880906 9.89178296 5.98387737 12 7 C9.13536054 7.81846842 7.24992893 8.05231071 4.3125 7.4375 C1.16627996 5.4817416 0.8401472 3.51334286 0 0 Z " fill="#EFAE59" transform="translate(94,87)"/>
<path d="M0 0 C0.66 0 1.32 0 2 0 C0.25 4.875 0.25 4.875 -2 6 C-2.72159424 7.64363134 -3.39351421 9.31050386 -4 11 C-4.66 11 -5.32 11 -6 11 C-4.74809374 6.51400257 -3.20614467 3.40652872 0 0 Z " fill="#EDAC59" transform="translate(77,18)"/>
<path d="M0 0 C1.66905241 3.33810482 2.8741386 6.46157845 4 10 C2.68 10.99 1.36 11.98 0 13 C0 8.71 0 4.42 0 0 Z " fill="#F2A74A" transform="translate(90,77)"/>
<path d="M0 0 C2.31 0.66 4.62 1.32 7 2 C6.401875 2.144375 5.80375 2.28875 5.1875 2.4375 C3.43849596 2.8872439 1.71322977 3.42892341 0 4 C0 5.65 0 7.3 0 9 C-0.33 9 -0.66 9 -1 9 C-1.625 5.625 -1.625 5.625 -2 2 C-1.34 1.34 -0.68 0.68 0 0 Z " fill="#F8B454" transform="translate(105,58)"/>
<path d="M0 0 C0.66 0 1.32 0 2 0 C0.90931332 3.77545388 0.0916909 6.47043472 -3 9 C-3 6.69 -3 4.38 -3 2 C-2.34 2 -1.68 2 -1 2 C-0.67 1.34 -0.34 0.68 0 0 Z " fill="#EFAA51" transform="translate(79,185)"/>
<path d="M0 0 C-3.45245824 2.30163882 -4.94738713 2.34490322 -9 2 C-9.66 1.34 -10.32 0.68 -11 0 C-3.57142857 -1.28571429 -3.57142857 -1.28571429 0 0 Z " fill="#EEAC5D" transform="translate(73,198)"/>
<path d="M0 0 C0.66 0 1.32 0 2 0 C2.33 2.97 2.66 5.94 3 9 C2.01 9 1.02 9 0 9 C0 6.03 0 3.06 0 0 Z " fill="#F59C2A" transform="translate(96,63)"/>
<path d="M0 0 C0.99 0.33 1.98 0.66 3 1 C2.25 3.4375 2.25 3.4375 1 6 C-1.125 6.8125 -1.125 6.8125 -3 7 C-1.125 1.125 -1.125 1.125 0 0 Z " fill="#ECB15F" transform="translate(99,56)"/>
<path d="M0 0 C3.57104439 1.87949705 5.54744301 3.17053157 7 7 C5.35 6.67 3.7 6.34 2 6 C1.34 4.02 0.68 2.04 0 0 Z " fill="#EEAA52" transform="translate(123,53)"/>
<path d="M0 0 C0.99 0.33 1.98 0.66 3 1 C2.1875 2.9375 2.1875 2.9375 1 5 C0.01 5.33 -0.98 5.66 -2 6 C-1.125 1.125 -1.125 1.125 0 0 Z " fill="#F1982F" transform="translate(170,90)"/>
<path d="M0 0 C5.53846154 -0.36923077 5.53846154 -0.36923077 7.875 1.5 C8.24625 1.995 8.6175 2.49 9 3 C7.3125 3.6875 7.3125 3.6875 5 4 C2.25 2.625 2.25 2.625 0 1 C0 0.67 0 0.34 0 0 Z " fill="#EF9E3E" transform="translate(101,83)"/>
</svg>
